<svg xmlns="http://www.w3.org/2000/svg" width="60" height="38.82" viewBox="0 0 60 38.82"><defs><style>.a{fill:none;}.b{fill:#fff;}.c{fill:#1a171b;}</style></defs><title>logo_black2</title><rect class="a" width="60" height="38.82"/><rect class="b" x="5.25" y="10.81" width="49.51" height="17.21"/><path class="c" d="M592,397.76a3.84,3.84,0,0,1,0-1.89,1.53,1.53,0,0,1,1.56-1.05,1.64,1.64,0,0,1,1.31.59,0.08,0.08,0,0,1,0,.11l-0.49.44a0.07,0.07,0,0,1-.11,0,0.85,0.85,0,0,0-.7-0.33,0.69,0.69,0,0,0-.71.5,2.28,2.28,0,0,0-.08.71,2.34,2.34,0,0,0,.08.71,0.7,0.7,0,0,0,.71.49,0.86,0.86,0,0,0,.7-0.33,0.07,0.07,0,0,1,.11,0l0.49,0.44a0.08,0.08,0,0,1,0,.11,1.66,1.66,0,0,1-1.31.59,1.53,1.53,0,0,1-1.56-1.05" transform="translate(-582 -376.59)"/><path class="c" d="M609.16,397.76a3.84,3.84,0,0,1,0-1.89,1.53,1.53,0,0,1,1.56-1.05,1.64,1.64,0,0,1,1.31.59,0.08,0.08,0,0,1,0,.11l-0.49.44a0.07,0.07,0,0,1-.11,0,0.85,0.85,0,0,0-.7-0.33,0.69,0.69,0,0,0-.71.5,2.27,2.27,0,0,0-.08.71,2.32,2.32,0,0,0,.08.71,0.7,0.7,0,0,0,.71.49,0.85,0.85,0,0,0,.7-0.33,0.07,0.07,0,0,1,.11,0l0.49,0.44a0.08,0.08,0,0,1,0,.11,1.66,1.66,0,0,1-1.31.59,1.53,1.53,0,0,1-1.56-1.05" transform="translate(-582 -376.59)"/><path class="c" d="M629,398.73a0.07,0.07,0,0,1-.08-0.08v-2.2a0.72,0.72,0,0,0-.71-0.83,0.73,0.73,0,0,0-.72.83v2.2a0.07,0.07,0,0,1-.08.08h-0.72a0.07,0.07,0,0,1-.08-0.08v-2.2a0.72,0.72,0,0,0-.71-0.83,0.73,0.73,0,0,0-.72.83v2.2a0.07,0.07,0,0,1-.08.08h-0.72a0.07,0.07,0,0,1-.08-0.08V395a0.07,0.07,0,0,1,.08-0.08h0.72a0.07,0.07,0,0,1,.08.08v0.28h0a1.16,1.16,0,0,1,1-.44,1.21,1.21,0,0,1,1,.51h0a1.54,1.54,0,0,1,1.21-.51,1.31,1.31,0,0,1,1.37,1.42v2.41a0.07,0.07,0,0,1-.08.08H629Z" transform="translate(-582 -376.59)"/><path class="c" d="M630.87,400.16a0.07,0.07,0,0,1-.08-0.08v-0.63a0.07,0.07,0,0,1,.08-0.08H631a0.55,0.55,0,0,0,.57-0.45l0.11-.32-1.38-3.6a0.06,0.06,0,0,1,.06-0.08h0.78a0.1,0.1,0,0,1,.09.08l0.86,2.5h0l0.82-2.5a0.1,0.1,0,0,1,.09-0.08h0.75a0.06,0.06,0,0,1,.06.08l-1.44,4c-0.33.9-.64,1.19-1.27,1.19h-0.24Z" transform="translate(-582 -376.59)"/><path class="c" d="M595.61,397.76a3.6,3.6,0,0,1,0-1.89,1.68,1.68,0,0,1,3.11,0,3.6,3.6,0,0,1,0,1.89,1.68,1.68,0,0,1-3.11,0m2.27-.24a2.17,2.17,0,0,0,.08-0.71,2.2,2.2,0,0,0-.08-0.7,0.7,0.7,0,0,0-.71-0.5,0.71,0.71,0,0,0-.71.5,2.21,2.21,0,0,0-.08.7,2.19,2.19,0,0,0,.08.71,0.71,0.71,0,0,0,.71.5,0.7,0.7,0,0,0,.71-0.5" transform="translate(-582 -376.59)"/><path class="c" d="M614.14,394.82a2.19,2.19,0,0,0-1.34.37,0.07,0.07,0,0,0,0,.1l0.29,0.52a0.07,0.07,0,0,0,.11,0,1.32,1.32,0,0,1,.86-0.26c0.62,0,.83.19,0.84,0.6h0v1.27a0.68,0.68,0,0,1-.84.65c-0.42,0-.65-0.16-0.65-0.48s0.25-.52.82-0.52h0.17a0.07,0.07,0,0,0,.08-0.08v-0.51a0.07,0.07,0,0,0-.08-0.08h-0.31c-0.93,0-1.52.38-1.52,1.21a1.14,1.14,0,0,0,1.27,1.17,1.23,1.23,0,0,0,1.07-.44h0v0.28a0.07,0.07,0,0,0,.08.08h0.66a0.07,0.07,0,0,0,.08-0.08v-2.5c0-.94-0.42-1.33-1.58-1.33" transform="translate(-582 -376.59)"/><path class="c" d="M604.76,396.44a0,0,0,0,0,0,0v0.6a0,0,0,0,0,0,0h1.94a0.08,0.08,0,0,0,.09-0.08,3.46,3.46,0,0,0-.13-1.15,1.67,1.67,0,0,0-3.1,0,3.09,3.09,0,0,0-.13.94,3,3,0,0,0,.13.94,1.53,1.53,0,0,0,1.58,1.06,2,2,0,0,0,1.55-.65,0.07,0.07,0,0,0,0-.11l-0.46-.41a0.08,0.08,0,0,0-.12,0,1.13,1.13,0,0,1-.89.36,0.83,0.83,0,0,1-.85-0.58,0.94,0.94,0,0,1,0-.17h0a2.94,2.94,0,0,1,0-.55,3.34,3.34,0,0,1,0-.53h0a0.89,0.89,0,0,1,0-.12,0.81,0.81,0,0,1,1.48,0,1,1,0,0,1,0,.33,0,0,0,0,1,0,0h-1.1Z" transform="translate(-582 -376.59)"/><path class="c" d="M602.71,393.34H602a0.07,0.07,0,0,0-.08.08v1.85h0v1.53h0V397h0a1.83,1.83,0,0,1-.07.5,0.75,0.75,0,0,1-1.4,0,3.29,3.29,0,0,1,0-1.42,0.68,0.68,0,0,1,.68-0.49h0.31a0,0,0,0,0,0,0v-0.72a0,0,0,0,0,0,0h-0.53a1.27,1.27,0,0,0-1.29.92,4.42,4.42,0,0,0,0,2.15,1.27,1.27,0,0,0,1.31.92,1.13,1.13,0,0,0,1-.45h0v0.28a0.07,0.07,0,0,0,.08.08h0.72a0.07,0.07,0,0,0,.08-0.08v-5.22a0.07,0.07,0,0,0-.08-0.08" transform="translate(-582 -376.59)"/><path class="c" d="M621.61,396.44a0,0,0,0,0,0,0v0.6a0,0,0,0,0,0,0h1.94a0.08,0.08,0,0,0,.09-0.08,3.46,3.46,0,0,0-.13-1.15,1.67,1.67,0,0,0-3.1,0,3.08,3.08,0,0,0-.13.94,3,3,0,0,0,.13.94,1.53,1.53,0,0,0,1.58,1.06,2,2,0,0,0,1.55-.65,0.07,0.07,0,0,0,0-.11l-0.46-.41a0.08,0.08,0,0,0-.12,0,1.13,1.13,0,0,1-.89.36,0.83,0.83,0,0,1-.85-0.58,0.94,0.94,0,0,1,0-.17h0a3,3,0,0,1,0-.55,3.32,3.32,0,0,1,0-.53h0a0.91,0.91,0,0,1,0-.12,0.81,0.81,0,0,1,1.48,0,1,1,0,0,1,0,.33,0,0,0,0,1,0,0h-1.1Z" transform="translate(-582 -376.59)"/><path class="c" d="M619.59,393.34h-0.72a0.07,0.07,0,0,0-.08.08v3.39h0V397h0a1.84,1.84,0,0,1-.07.5,0.75,0.75,0,0,1-1.41,0,3.28,3.28,0,0,1,0-1.43,0.67,0.67,0,0,1,.68-0.49h0.31a0.07,0.07,0,0,0,.08-0.08V394.9a0.07,0.07,0,0,0-.08-0.08h-0.54a1.27,1.27,0,0,0-1.29.92,4.42,4.42,0,0,0,0,2.16,1.27,1.27,0,0,0,1.31.92,1.13,1.13,0,0,0,1-.45h0v0.29a0.07,0.07,0,0,0,.08.08h0.72a0.07,0.07,0,0,0,.08-0.08v-5.23a0.07,0.07,0,0,0-.08-0.08" transform="translate(-582 -376.59)"/><path class="c" d="M609.1,399.81v0.72a0.07,0.07,0,0,0,.08.08h2.68a0.07,0.07,0,0,0,.08-0.08v-0.72a0.07,0.07,0,0,0-.08-0.08h-2.68a0.07,0.07,0,0,0-.08.08" transform="translate(-582 -376.59)"/><path class="c" d="M608.42,391.47h0l-0.06,0H590.29a0.07,0.07,0,0,0,0,.07h0v9h0a0.08,0.08,0,0,0,0,.06h18.09a0.08,0.08,0,0,0,.06,0,0.08,0.08,0,0,0,0-.05h0v-9h0a0.08,0.08,0,0,0,0-.05m-17.22,8.26h0a0.07,0.07,0,0,1,0-.07V392.4a0.07,0.07,0,0,1,0-.07h16.35a0.07,0.07,0,0,1,0,.07v7.25a0.07,0.07,0,0,1,0,.07H591.2Z" transform="translate(-582 -376.59)"/></svg>