<svg xmlns="http://www.w3.org/2000/svg" width="48" height="50" viewBox="0 0 48 50"><defs><style>.a{fill:#fff;}.b{fill:#47535b;}.c{fill:#6fbc6d;}</style></defs><title>teamTreehouse</title><rect class="a" width="48" height="50"/><path class="b" d="M5.47,41.11A1.42,1.42,0,0,1,4,39.5V36.26a0.55,0.55,0,1,1,1.1,0v0.56h1a0.48,0.48,0,1,1,0,1h-1v1.69a0.51,0.51,0,0,0,.53.61A1.94,1.94,0,0,0,6.14,40a0.5,0.5,0,0,1,.68.47,0.52,0.52,0,0,1-.34.48A2.6,2.6,0,0,1,5.47,41.11Z"/><path class="b" d="M10.24,37.24a0.52,0.52,0,0,1-.52.52c-0.19,0-.37-0.08-0.61-0.07a0.43,0.43,0,0,0-.43.53v2.32a0.55,0.55,0,1,1-1.1,0V38A1.3,1.3,0,0,1,9,36.61a3.27,3.27,0,0,1,.7.07A0.59,0.59,0,0,1,10.24,37.24Z"/><path class="b" d="M14.5,38.69a0.5,0.5,0,0,1-.56.55H11.75v0.08a0.81,0.81,0,0,0,.94.79,2.5,2.5,0,0,0,.88-0.18,0.49,0.49,0,0,1,.72.43,0.51,0.51,0,0,1-.28.46,2.88,2.88,0,0,1-1.35.29,1.85,1.85,0,0,1-2-1.74,8.58,8.58,0,0,1,0-1,1.84,1.84,0,0,1,1.93-1.74,1.78,1.78,0,0,1,1.87,1.9v0.18Zm-1.15-.2a0.08,0.08,0,0,0,.09-0.1,0.75,0.75,0,0,0-.82-0.84,0.82,0.82,0,0,0-.87.93h1.6Z"/><path class="b" d="M19.12,38.69a0.5,0.5,0,0,1-.57.55H16.38v0.08a0.82,0.82,0,0,0,.94.79,2.5,2.5,0,0,0,.88-0.18,0.49,0.49,0,0,1,.72.43,0.51,0.51,0,0,1-.28.46,2.88,2.88,0,0,1-1.35.29,1.85,1.85,0,0,1-2-1.74,8.47,8.47,0,0,1,0-1,1.84,1.84,0,0,1,1.93-1.74,1.78,1.78,0,0,1,1.88,1.9v0.18ZM18,38.49a0.08,0.08,0,0,0,.09-0.1,0.75,0.75,0,0,0-.82-0.84,0.82,0.82,0,0,0-.87.93H18Z"/><path class="b" d="M21.16,36.93a1.69,1.69,0,0,1,1-.32,1.56,1.56,0,0,1,1.65,1.79v2.1a0.55,0.55,0,1,1-1.1,0v-2A0.7,0.7,0,0,0,22,37.68a1.21,1.21,0,0,0-.85.34v2.5a0.55,0.55,0,0,1-.54.56,0.56,0.56,0,0,1-.56-0.56V35.73a0.55,0.55,0,1,1,1.1,0v1.2Z"/><path class="b" d="M26.77,41.11a1.85,1.85,0,0,1-2-1.66,9.29,9.29,0,0,1,0-1.17,2,2,0,0,1,3.92,0,9.17,9.17,0,0,1,0,1.16A1.84,1.84,0,0,1,26.77,41.11Zm0.87-2.66a0.81,0.81,0,0,0-.87-0.79,0.83,0.83,0,0,0-.88.79,6.81,6.81,0,0,0,0,.82,0.83,0.83,0,0,0,.88.79,0.81,0.81,0,0,0,.87-0.79A6.92,6.92,0,0,0,27.64,38.45Z"/><path class="b" d="M29.68,37.21a0.53,0.53,0,0,1,.54-0.58,0.56,0.56,0,0,1,.56.58V39.3a0.72,0.72,0,0,0,.79.76,1.52,1.52,0,0,0,.8-0.21V37.2a0.55,0.55,0,0,1,.55-0.56,0.56,0.56,0,0,1,.55.56v3.06a0.39,0.39,0,0,1-.2.38,3.07,3.07,0,0,1-1.73.47,1.66,1.66,0,0,1-1.86-1.79v-2.1Z"/><path class="b" d="M37.79,39.69a1.5,1.5,0,0,1-1.71,1.42,2.36,2.36,0,0,1-1.56-.47,0.51,0.51,0,0,1-.1-0.68,0.5,0.5,0,0,1,.71-0.1,1.8,1.8,0,0,0,1,.27c0.43,0,.62-0.16.62-0.38s-0.13-.3-0.47-0.38l-0.61-.14A1.33,1.33,0,0,1,34.45,38a1.44,1.44,0,0,1,1.67-1.37,2.24,2.24,0,0,1,1.33.37,0.51,0.51,0,0,1,0,.73,0.58,0.58,0,0,1-.71.07,1.76,1.76,0,0,0-.71-0.18c-0.41,0-.58.16-0.58,0.35s0.12,0.29.49,0.37l0.58,0.13A1.28,1.28,0,0,1,37.79,39.69Z"/><path class="b" d="M42.33,38.69a0.5,0.5,0,0,1-.56.55H39.59v0.08a0.82,0.82,0,0,0,.94.79,2.5,2.5,0,0,0,.88-0.18,0.49,0.49,0,0,1,.72.43,0.51,0.51,0,0,1-.28.46,2.88,2.88,0,0,1-1.35.29,1.85,1.85,0,0,1-2-1.74,8.53,8.53,0,0,1,0-1,1.84,1.84,0,0,1,1.93-1.74,1.78,1.78,0,0,1,1.87,1.9v0.18Zm-1.15-.2a0.08,0.08,0,0,0,.09-0.1,0.75,0.75,0,0,0-.82-0.84,0.82,0.82,0,0,0-.87.93h1.6Z"/><path class="b" d="M42.9,37.28a0.09,0.09,0,0,1-.09.09,0.09,0.09,0,0,1-.1-0.09V36.84H42.57a0.09,0.09,0,0,1-.09-0.09,0.09,0.09,0,0,1,.09-0.09H43a0.09,0.09,0,0,1,.09.09,0.09,0.09,0,0,1-.09.09H42.9v0.44Zm0.57-.51,0.08,0.35,0.08-.35a0.15,0.15,0,0,1,.29,0L44,37.25a0.1,0.1,0,0,1-.07.12,0.09,0.09,0,0,1-.12-0.08l-0.05-.39-0.09.37a0.12,0.12,0,0,1-.12.11,0.13,0.13,0,0,1-.12-0.11l-0.09-.37-0.05.4a0.09,0.09,0,0,1-.12.08,0.09,0.09,0,0,1-.07-0.12l0.07-.46a0.15,0.15,0,0,1,.15-0.13A0.14,0.14,0,0,1,43.47,36.77Z"/><path class="c" d="M31.92,11c-0.84-.47-2.17.29-3,1.7l-1.47,2.56a3.22,3.22,0,0,0,.22,3.3l0,0.06a19.32,19.32,0,0,0,1.9,2.2,1.67,1.67,0,1,1-2.87.93,2,2,0,0,0-.6-1.55c-0.53-.59-1.6.52-1.95,1.66l0,0.05a8.71,8.71,0,0,0-.5,2.23l0.11,0.18a1.88,1.88,0,1,1-2.54-.78l0.12-.06a3.68,3.68,0,0,0,.44-1.07l0.31-1,0-.18,0.93-3.31-1,2c-0.12-.39-0.31-0.4-0.74-0.1-0.26.18-.68,0.55-0.89,0.69a3.48,3.48,0,0,0-.89,1.15,1.66,1.66,0,1,1-1.82-2.39,13.8,13.8,0,0,0,2.69-1.57,4.09,4.09,0,0,0,.39-0.31l2.28-1.73-2,1.07a2.38,2.38,0,0,0-.45,0,3.87,3.87,0,0,0-1.62.36A1.48,1.48,0,1,1,18,14.73a13.08,13.08,0,0,0,3.11.09l0.3-.05a5,5,0,0,0,3.13-2.28l1.22-2.15c0.68-1.19.63-2.49-.11-2.9l-1.33-.75a2.77,2.77,0,0,0-2.45,0l-9.19,5.18A2.67,2.67,0,0,0,11.42,14V24.09a2.67,2.67,0,0,0,1.22,2.1l9.19,5.18a2.77,2.77,0,0,0,2.45,0l9.16-5.18a2.67,2.67,0,0,0,1.22-2.1V14a2.67,2.67,0,0,0-1.22-2.1Z"/></svg>